<mxfile host="app.diagrams.net" modified="2023-09-01T11:24:39.514Z" agent="Mozilla/5.0 (Macintosh; Intel Mac OS X 10_15_7) AppleWebKit/537.36 (KHTML, like Gecko) Chrome/115.0.0.0 Safari/537.36" etag="KaNPQB3tPXIC0aP1tuJn" version="21.7.1" type="device">
  <diagram name="第 1 页" id="ydn4l21ypAKILk0yMW28">
    <mxGraphModel dx="954" dy="549" grid="1" gridSize="10" guides="1" tooltips="1" connect="1" arrows="1" fold="1" page="1" pageScale="1" pageWidth="827" pageHeight="1169" math="0" shadow="0">
      <root>
        <mxCell id="0" />
        <mxCell id="1" parent="0" />
        <mxCell id="7-xXJrKYtLPseB3tMn3a-1" value="test.js" style="rounded=1;whiteSpace=wrap;html=1;" vertex="1" parent="1">
          <mxGeometry x="50" y="50" width="120" height="60" as="geometry" />
        </mxCell>
        <mxCell id="7-xXJrKYtLPseB3tMn3a-2" value="EAS graphql" style="rounded=1;whiteSpace=wrap;html=1;" vertex="1" parent="1">
          <mxGeometry x="480" y="50" width="120" height="60" as="geometry" />
        </mxCell>
        <mxCell id="7-xXJrKYtLPseB3tMn3a-3" value="PADODemo.sol" style="rounded=1;whiteSpace=wrap;html=1;" vertex="1" parent="1">
          <mxGeometry x="260" y="50" width="120" height="60" as="geometry" />
        </mxCell>
        <mxCell id="7-xXJrKYtLPseB3tMn3a-4" value="EAS Contract" style="rounded=1;whiteSpace=wrap;html=1;" vertex="1" parent="1">
          <mxGeometry x="690" y="50" width="120" height="60" as="geometry" />
        </mxCell>
        <mxCell id="7-xXJrKYtLPseB3tMn3a-5" value="" style="endArrow=none;dashed=1;html=1;rounded=0;entryX=0.5;entryY=1;entryDx=0;entryDy=0;" edge="1" parent="1" target="7-xXJrKYtLPseB3tMn3a-1">
          <mxGeometry width="50" height="50" relative="1" as="geometry">
            <mxPoint x="110" y="450" as="sourcePoint" />
            <mxPoint x="170" y="160" as="targetPoint" />
          </mxGeometry>
        </mxCell>
        <mxCell id="7-xXJrKYtLPseB3tMn3a-6" value="" style="endArrow=none;dashed=1;html=1;rounded=0;entryX=0.5;entryY=1;entryDx=0;entryDy=0;" edge="1" parent="1" target="7-xXJrKYtLPseB3tMn3a-3">
          <mxGeometry width="50" height="50" relative="1" as="geometry">
            <mxPoint x="320" y="450" as="sourcePoint" />
            <mxPoint x="319.5" y="120" as="targetPoint" />
          </mxGeometry>
        </mxCell>
        <mxCell id="7-xXJrKYtLPseB3tMn3a-7" value="" style="endArrow=none;dashed=1;html=1;rounded=0;entryX=0.5;entryY=1;entryDx=0;entryDy=0;" edge="1" parent="1">
          <mxGeometry width="50" height="50" relative="1" as="geometry">
            <mxPoint x="540" y="450" as="sourcePoint" />
            <mxPoint x="539.5" y="110" as="targetPoint" />
          </mxGeometry>
        </mxCell>
        <mxCell id="7-xXJrKYtLPseB3tMn3a-8" value="" style="endArrow=none;dashed=1;html=1;rounded=0;entryX=0.5;entryY=1;entryDx=0;entryDy=0;" edge="1" parent="1">
          <mxGeometry width="50" height="50" relative="1" as="geometry">
            <mxPoint x="750" y="450" as="sourcePoint" />
            <mxPoint x="749.5" y="110" as="targetPoint" />
          </mxGeometry>
        </mxCell>
        <mxCell id="7-xXJrKYtLPseB3tMn3a-9" value="" style="endArrow=classic;html=1;rounded=0;" edge="1" parent="1">
          <mxGeometry width="50" height="50" relative="1" as="geometry">
            <mxPoint x="110" y="140" as="sourcePoint" />
            <mxPoint x="540" y="140" as="targetPoint" />
          </mxGeometry>
        </mxCell>
        <mxCell id="7-xXJrKYtLPseB3tMn3a-11" value="1.&amp;nbsp;Get attestation uid that meets the conditions" style="edgeLabel;html=1;align=center;verticalAlign=middle;resizable=0;points=[];" vertex="1" connectable="0" parent="7-xXJrKYtLPseB3tMn3a-9">
          <mxGeometry x="-0.8326" y="2" relative="1" as="geometry">
            <mxPoint x="114" as="offset" />
          </mxGeometry>
        </mxCell>
        <mxCell id="7-xXJrKYtLPseB3tMn3a-12" value="" style="endArrow=classic;html=1;rounded=0;" edge="1" parent="1">
          <mxGeometry width="50" height="50" relative="1" as="geometry">
            <mxPoint x="110" y="210" as="sourcePoint" />
            <mxPoint x="320" y="210" as="targetPoint" />
          </mxGeometry>
        </mxCell>
        <mxCell id="7-xXJrKYtLPseB3tMn3a-13" value="2.&amp;nbsp;Uid is used as a parameter &lt;br&gt;to call the contract interface" style="edgeLabel;html=1;align=center;verticalAlign=middle;resizable=0;points=[];" vertex="1" connectable="0" parent="7-xXJrKYtLPseB3tMn3a-12">
          <mxGeometry x="-0.7524" y="1" relative="1" as="geometry">
            <mxPoint x="74" as="offset" />
          </mxGeometry>
        </mxCell>
        <mxCell id="7-xXJrKYtLPseB3tMn3a-14" value="" style="endArrow=classic;html=1;rounded=0;" edge="1" parent="1">
          <mxGeometry width="50" height="50" relative="1" as="geometry">
            <mxPoint x="320" y="270" as="sourcePoint" />
            <mxPoint x="750" y="270" as="targetPoint" />
          </mxGeometry>
        </mxCell>
        <mxCell id="7-xXJrKYtLPseB3tMn3a-15" value="3. Get attestation, using uid&amp;nbsp;" style="edgeLabel;html=1;align=center;verticalAlign=middle;resizable=0;points=[];" vertex="1" connectable="0" parent="7-xXJrKYtLPseB3tMn3a-14">
          <mxGeometry x="-0.8279" y="2" relative="1" as="geometry">
            <mxPoint x="57" as="offset" />
          </mxGeometry>
        </mxCell>
        <mxCell id="7-xXJrKYtLPseB3tMn3a-16" value="4. verify attestation:&lt;br&gt;1). verify attester is PADO&lt;br&gt;2). verify user address is msg.sender&lt;br&gt;3). verify schema id and content&amp;nbsp;" style="text;html=1;strokeColor=none;fillColor=none;align=left;verticalAlign=middle;whiteSpace=wrap;rounded=0;" vertex="1" parent="1">
          <mxGeometry x="320" y="300" width="210" height="80" as="geometry" />
        </mxCell>
        <mxCell id="7-xXJrKYtLPseB3tMn3a-17" value="" style="endArrow=classic;html=1;rounded=0;" edge="1" parent="1">
          <mxGeometry width="50" height="50" relative="1" as="geometry">
            <mxPoint x="320" y="400" as="sourcePoint" />
            <mxPoint x="110" y="400" as="targetPoint" />
          </mxGeometry>
        </mxCell>
        <mxCell id="7-xXJrKYtLPseB3tMn3a-18" value="5. return result" style="edgeLabel;html=1;align=center;verticalAlign=middle;resizable=0;points=[];" vertex="1" connectable="0" parent="7-xXJrKYtLPseB3tMn3a-17">
          <mxGeometry x="0.4952" y="-2" relative="1" as="geometry">
            <mxPoint x="27" as="offset" />
          </mxGeometry>
        </mxCell>
      </root>
    </mxGraphModel>
  </diagram>
</mxfile>
